<svg width="24" height="24" viewBox="0 0 24 24" fill="none" xmlns="http://www.w3.org/2000/svg">
<path fill-rule="evenodd" clip-rule="evenodd" d="M4 5C3.44772 5 3 5.44772 3 6V7C3 7.55228 3.44772 8 4 8H5C5.55228 8 6 7.55228 6 7V6C6 5.44772 5.55228 5 5 5H4ZM9 5C8.44772 5 8 5.44772 8 6V7C8 7.55228 8.44772 8 9 8H10C10.5523 8 11 7.55228 11 7V6C11 5.44772 10.5523 5 10 5H9ZM13 6C13 5.44772 13.4477 5 14 5H15C15.5523 5 16 5.44772 16 6V7C16 7.55228 15.5523 8 15 8H14C13.4477 8 13 7.55228 13 7V6ZM4 10C3.44772 10 3 10.4477 3 11V12C3 12.5523 3.44772 13 4 13H5C5.55228 13 6 12.5523 6 12V11C6 10.4477 5.55228 10 5 10H4ZM8 11C8 10.4477 8.44772 10 9 10H10C10.5523 10 11 10.4477 11 11V12C11 12.5523 10.5523 13 10 13H9C8.44772 13 8 12.5523 8 12V11ZM14 10C13.4477 10 13 10.4477 13 11V12C13 12.5523 13.4477 13 14 13H15C15.5523 13 16 12.5523 16 12V11C16 10.4477 15.5523 10 15 10H14ZM18 11C18 10.4477 18.4477 10 19 10H20C20.5523 10 21 10.4477 21 11V12C21 12.5523 20.5523 13 20 13H19C18.4477 13 18 12.5523 18 12V11ZM9 15C8.44772 15 8 15.4477 8 16V17C8 17.5523 8.44772 18 9 18H10C10.5523 18 11 17.5523 11 17V16C11 15.4477 10.5523 15 10 15H9ZM13 16C13 15.4477 13.4477 15 14 15H15C15.5523 15 16 15.4477 16 16V17C16 17.5523 15.5523 18 15 18H14C13.4477 18 13 17.5523 13 17V16ZM19 15C18.4477 15 18 15.4477 18 16V17C18 17.5523 18.4477 18 19 18H20C20.5523 18 21 17.5523 21 17V16C21 15.4477 20.5523 15 20 15H19Z" fill="#333333"/>
</svg>
