<svg width="24" height="24" viewBox="0 0 24 24" fill="none" xmlns="http://www.w3.org/2000/svg">
<path d="M13.0742 12.0116L19.9996 5.09729C20.2925 4.80439 20.2925 4.32952 19.9996 4.03663C19.7067 3.74373 19.2319 3.74373 18.939 4.03663L12 10.964L5.08972 4.03663C4.79682 3.74373 4.32195 3.74373 4.02906 4.03663C3.73616 4.32952 3.73616 4.80439 4.02906 5.09729L10.9241 12.0087L4.02906 18.909C3.73616 19.2019 3.73616 19.6768 4.02906 19.9697C4.32195 20.2626 4.79682 20.2626 5.08972 19.9697L11.997 13.0569L18.939 19.9697C19.2319 20.2626 19.7067 20.2626 19.9996 19.9697C20.2925 19.6768 20.2925 19.2019 19.9996 18.909L13.0742 12.0116Z" fill="#333333"/>
</svg>
