<svg width="24" height="24" viewBox="0 0 24 24" fill="none" xmlns="http://www.w3.org/2000/svg">
<path fill-rule="evenodd" clip-rule="evenodd" d="M16.5 9H15.75V7.57143C15.75 5.6 14.07 4 12 4C9.93 4 8.25 5.6 8.25 7.57143V9H7.5C6.675 9 6 9.64286 6 10.4286V17.5714C6 18.3571 6.675 19 7.5 19H16.5C17.325 19 18 18.3571 18 17.5714V10.4286C18 9.64286 17.325 9 16.5 9ZM12 15C11.45 15 11 14.55 11 14C11 13.45 11.45 13 12 13C12.55 13 13 13.45 13 14C13 14.55 12.55 15 12 15ZM9.75 7.57143V9H14.25V7.57143C14.25 6.38571 13.245 5.42857 12 5.42857C10.755 5.42857 9.75 6.38571 9.75 7.57143Z" fill="#333333"/>
</svg>
