<svg width="24" height="24" viewBox="0 0 24 24" fill="none" xmlns="http://www.w3.org/2000/svg">
<path d="M2 3H22C23.05 3 24 3.95 24 5V19C24 20.05 23.05 21 22 21H2C0.95 21 0 20.05 0 19V5C0 3.95 0.95 3 2 3ZM14 6V7H22V6H14ZM14 8V9H21.5H22V8H14ZM14 10V11H21V10H14ZM8 13.91C6 13.91 2 15 2 17V18H14V17C14 15 10 13.91 8 13.91ZM8 6C7.2044 6 6.4413 6.3161 5.8787 6.8787C5.3161 7.4413 5 8.2044 5 9C5 9.7956 5.3161 10.5587 5.8787 11.1213C6.4413 11.6839 7.2044 12 8 12C8.7956 12 9.5587 11.6839 10.1213 11.1213C10.6839 10.5587 11 9.7956 11 9C11 8.2044 10.6839 7.4413 10.1213 6.8787C9.5587 6.3161 8.7956 6 8 6Z" fill="#333333"/>
</svg>
