<svg width="24" height="24" viewBox="0 0 24 24" fill="none" xmlns="http://www.w3.org/2000/svg">
<path d="M14.6667 12C14.6667 13.4688 13.4688 14.6667 12 14.6667C10.5312 14.6667 9.33333 13.4688 9.33333 12C9.33333 10.5312 10.5312 9.33333 12 9.33333C13.4688 9.33333 14.6667 10.5312 14.6667 12ZM20 10.8646C20 10.6875 19.875 10.5208 19.6979 10.4896L17.7917 10.1979C17.6875 9.85417 17.5417 9.51042 17.3646 9.17708C17.7188 8.6875 18.1042 8.22917 18.4583 7.75C18.5104 7.67708 18.5417 7.60417 18.5417 7.51042C18.5417 7.42708 18.5208 7.34375 18.4688 7.28125C18.0312 6.66667 17.3021 6.02083 16.75 5.51042C16.6771 5.44792 16.5833 5.40625 16.4896 5.40625C16.3958 5.40625 16.3021 5.4375 16.2396 5.5L14.7604 6.61458C14.4583 6.45833 14.1458 6.33333 13.8229 6.22917L13.5312 4.3125C13.5104 4.13542 13.3438 4 13.1562 4H10.8438C10.6562 4 10.5104 4.125 10.4688 4.29167C10.3021 4.91667 10.2396 5.59375 10.1667 6.22917C9.84375 6.33333 9.52083 6.46875 9.21875 6.625L7.78125 5.51042C7.69792 5.44792 7.60417 5.40625 7.51042 5.40625C7.15625 5.40625 5.75 6.92708 5.5 7.27083C5.44792 7.34375 5.40625 7.41667 5.40625 7.51042C5.40625 7.60417 5.44792 7.6875 5.51042 7.76042C5.89583 8.22917 6.27083 8.69792 6.625 9.19792C6.45833 9.51042 6.32292 9.82292 6.21875 10.1562L4.28125 10.4479C4.125 10.4792 4 10.6667 4 10.8229V13.1354C4 13.3125 4.125 13.4792 4.30208 13.5104L6.20833 13.7917C6.3125 14.1458 6.45833 14.4896 6.63542 14.8229C6.28125 15.3125 5.89583 15.7708 5.54167 16.25C5.48958 16.3229 5.45833 16.3958 5.45833 16.4896C5.45833 16.5729 5.47917 16.6562 5.53125 16.7292C5.96875 17.3333 6.69792 17.9792 7.25 18.4792C7.32292 18.5521 7.41667 18.5938 7.51042 18.5938C7.60417 18.5938 7.69792 18.5625 7.77083 18.5L9.23958 17.3854C9.54167 17.5417 9.85417 17.6667 10.1771 17.7708L10.4688 19.6875C10.4896 19.8646 10.6562 20 10.8438 20H13.1562C13.3438 20 13.4896 19.875 13.5312 19.7083C13.6979 19.0833 13.7604 18.4062 13.8333 17.7708C14.1562 17.6667 14.4792 17.5312 14.7812 17.375L16.2188 18.5C16.3021 18.5521 16.3958 18.5938 16.4896 18.5938C16.8438 18.5938 18.25 17.0625 18.5 16.7292C18.5625 16.6562 18.5938 16.5833 18.5938 16.4896C18.5938 16.3958 18.5521 16.3021 18.4896 16.2292C18.1042 15.7604 17.7292 15.3021 17.375 14.7917C17.5417 14.4896 17.6667 14.1771 17.7812 13.8438L19.7083 13.5521C19.875 13.5208 20 13.3333 20 13.1771V10.8646Z" fill="#333333"/>
</svg>
