<svg width="24" height="24" viewBox="0 0 24 24" fill="none" xmlns="http://www.w3.org/2000/svg">
<path d="M17 11V13H15.54L20.22 17.68C21.34 16.07 22 14.11 22 12C22 10.6868 21.7413 9.3864 21.2388 8.1732C20.7362 6.9599 19.9997 5.8575 19.0711 4.9289C18.1425 4.0003 17.0401 3.2638 15.8268 2.7612C14.6136 2.2587 13.3132 2 12 2C9.89 2 7.93 2.66 6.32 3.78L13.54 11H17ZM2.27 2.27L1 3.54L3.78 6.32C2.66 7.93 2 9.89 2 12C2 14.6522 3.0536 17.1957 4.9289 19.0711C5.8575 19.9997 6.9599 20.7362 8.1732 21.2388C9.3864 21.7413 10.6868 22 12 22C14.11 22 16.07 21.34 17.68 20.22L20.46 23L21.73 21.73L2.27 2.27ZM7 13V11H8.46L10.46 13H7Z" fill="#333333"/>
</svg>
