<svg width="24" height="24" viewBox="0 0 24 24" fill="none" xmlns="http://www.w3.org/2000/svg">
<path fill-rule="evenodd" clip-rule="evenodd" d="M9 4C7.9391 4 6.9217 4.4214 6.1716 5.1716C5.4214 5.9217 5 6.9391 5 8C5 9.0609 5.4214 10.0783 6.1716 10.8284C6.9217 11.5786 7.9391 12 9 12C10.0609 12 11.0783 11.5786 11.8284 10.8284C12.5786 10.0783 13 9.0609 13 8C13 6.9391 12.5786 5.9217 11.8284 5.1716C11.0783 4.4214 10.0609 4 9 4ZM9 14C6.33 14 1 15.33 1 18V20H12.08C12.03 19.67 12 19.34 12 19C12 17.5 12.5 16 13.41 14.8C11.88 14.28 10.18 14 9 14ZM18 14C17.87 14 17.76 14.09 17.74 14.21L17.55 15.53C17.25 15.66 16.96 15.82 16.7 16L15.46 15.5C15.35 15.5 15.22 15.5 15.15 15.63L14.15 17.36C14.09 17.47 14.11 17.6 14.21 17.68L15.27 18.5C15.25 18.67 15.24 18.83 15.24 19C15.24 19.17 15.25 19.33 15.27 19.5L14.21 20.32C14.12 20.4 14.09 20.53 14.15 20.64L15.15 22.37C15.21 22.5 15.34 22.5 15.46 22.5L16.7 22C16.96 22.18 17.24 22.35 17.55 22.47L17.74 23.79C17.76 23.91 17.86 24 18 24H20C20.11 24 20.22 23.91 20.24 23.79L20.43 22.47C20.73 22.34 21 22.18 21.27 22L22.5 22.5C22.63 22.5 22.76 22.5 22.83 22.37L23.83 20.64C23.89 20.53 23.86 20.4 23.77 20.32L22.7 19.5C22.72 19.33 22.74 19.17 22.74 19C22.74 18.83 22.73 18.67 22.7 18.5L23.76 17.68C23.85 17.6 23.88 17.47 23.82 17.36L22.82 15.63C22.76 15.5 22.63 15.5 22.5 15.5L21.27 16C21 15.82 20.73 15.65 20.42 15.53L20.23 14.21C20.22 14.09 20.11 14 20 14H18ZM19 17.5C19.3978 17.5 19.7794 17.658 20.0607 17.9393C20.342 18.2206 20.5 18.6022 20.5 19C20.5 19.3978 20.342 19.7794 20.0607 20.0607C19.7794 20.342 19.3978 20.5 19 20.5C18.16 20.5 17.5 19.83 17.5 19C17.5 18.6022 17.658 18.2206 17.9393 17.9393C18.2206 17.658 18.6022 17.5 19 17.5Z" fill="#333333"/>
</svg>
