<svg width="24" height="24" viewBox="0 0 24 24" fill="none" xmlns="http://www.w3.org/2000/svg">
<path d="M12 8.5C13.0608 8.5 14.0783 8.92147 14.8284 9.6716C15.5785 10.4217 16 11.4392 16 12.5C16 13.5608 15.5785 14.5783 14.8284 15.3284C14.0783 16.0785 13.0608 16.5 12 16.5C10.9392 16.5 9.92173 16.0785 9.1716 15.3284C8.42147 14.5783 8 13.5608 8 12.5C8 11.4392 8.42147 10.4217 9.1716 9.6716C9.92173 8.92147 10.9392 8.5 12 8.5ZM12 5C17.4545 5 22.1127 8.11 24 12.5C22.1127 16.89 17.4545 20 12 20C6.54545 20 1.88727 16.89 0 12.5C1.88727 8.11 6.54545 5 12 5ZM2.18 12.5C4.01708 15.86 7.8137 18 12 18C16.1863 18 19.9829 15.86 21.82 12.5C19.9829 9.14 16.1863 7 12 7C7.8137 7 4.01708 9.14 2.18 12.5Z" fill="#333333"/>
</svg>
