<svg width="24" height="24" viewBox="0 0 24 24" fill="none" xmlns="http://www.w3.org/2000/svg">
<path d="M22.0779 11.4003C22.3772 10.9378 22.9918 10.8077 23.4503 11.1096C23.909 11.4116 24.038 12.0312 23.7386 12.4937C23.2409 13.2624 22.6755 13.974 22.0527 14.6219L23.3724 16.3244C23.7095 16.7596 23.633 17.388 23.2014 17.728C22.7698 18.0681 22.1467 17.9909 21.8094 17.5557L20.5726 15.9584C19.838 16.5327 19.0489 17.0322 18.2165 17.4491L19.1439 19.5485C19.3667 20.0531 19.1417 20.6442 18.6413 20.8688C18.141 21.0935 17.5548 20.8666 17.332 20.362L16.3818 18.2097C15.297 18.5712 14.1601 18.8014 12.992 18.8866L12.9917 21.0226C12.9917 21.5749 12.5477 22.0226 12.0001 22.0226C11.4915 22.0226 11.0724 21.6365 11.015 21.1392L11.0084 21.0226L11.0089 18.8909C9.83946 18.8108 8.70075 18.5854 7.61382 18.2283L6.67228 20.362C6.44953 20.8666 5.86335 21.0935 5.36302 20.8688C4.89843 20.6602 4.67123 20.1357 4.81949 19.6578L4.86044 19.5485L5.77533 17.4751C4.93902 17.0606 4.14577 16.563 3.40721 15.9897L2.19486 17.5557C1.85767 17.9909 1.23448 18.0681 0.8029 17.728C0.404522 17.4142 0.308678 16.8546 0.561495 16.428L0.631989 16.3244L1.92275 14.6591C1.31286 14.0292 0.757484 13.3386 0.265999 12.5932C-0.0372547 12.1333 0.0866164 11.5126 0.542673 11.2068C0.998729 10.901 1.61427 11.0259 1.91753 11.4858C4.14043 14.8569 7.88027 16.9237 11.9697 16.9237C16.0952 16.9237 19.8637 14.8201 22.0779 11.4003Z" fill="#333333"/>
</svg>
