<svg width="0" height="0" class="hidden">
  <symbol viewBox="0 0 24 24" id="ui-icon-alert-outlined">
    <path fill-rule="evenodd" clip-rule="evenodd" d="M11.99 2C6.47 2 2 6.48 2 12s4.47 10 9.99 10C17.52 22 22 17.52 22 12S17.52 2 11.99 2zM13 13V7h-2v6h2zm0 4v-2h-2v2h2zm-9-5c0 4.42 3.58 8 8 8s8-3.58 8-8-3.58-8-8-8-8 3.58-8 8z"></path>
  </symbol>
  <symbol viewBox="0 0 24 24" id="ui-icon-alert">
    <path d="M12 2C6.48 2 2 6.48 2 12s4.48 10 10 10 10-4.48 10-10S17.52 2 12 2zm1 15h-2v-2h2v2zm0-4h-2V7h2v6z"></path>
  </symbol>
  <symbol viewBox="0 0 24 24" id="ui-icon-arrow-left">
    <path d="M6.885 13.006c.596.358 1.148.82 1.655 1.387l3.109 3.377L10.284 19 4 12l6.284-7 1.365 1.23-3.11 3.377a7.182 7.182 0 0 1-1.654 1.387h12.099v2.012H6.885z"></path>
  </symbol>
  <symbol viewBox="0 0 24 24" id="ui-icon-arrow-right">
    <path d="M16.099 10.994a7.183 7.183 0 0 1-1.655-1.387L11.335 6.23 12.7 5l6.284 7-6.284 7-1.364-1.23 3.108-3.377a7.182 7.182 0 0 1 1.655-1.387H4v-2.012h12.099z"></path>
  </symbol>
  <symbol viewBox="0 0 24 24" id="ui-icon-ascending">
    <path d="M11.166 8.904a3.38 3.38 0 0 1-.424.616 7.112 7.112 0 0 1-.568.568l-2.416 2.224-.88-.976 5.008-4.496 5.008 4.496-.88.976-2.416-2.224a7.112 7.112 0 0 1-.568-.568 3.38 3.38 0 0 1-.424-.616v8.656h-1.44V8.904z"></path>
  </symbol>
  <symbol viewBox="0 0 24 24" id="ui-icon-avatar">
    <path d="M12 2C6.48 2 2 6.48 2 12s4.48 10 10 10 10-4.48 10-10S17.52 2 12 2zm0 3c1.66 0 3 1.34 3 3s-1.34 3-3 3-3-1.34-3-3 1.34-3 3-3zm0 14.2a7.2 7.2 0 0 1-6-3.22c.03-1.99 4-3.08 6-3.08 1.99 0 5.97 1.09 6 3.08a7.2 7.2 0 0 1-6 3.22z"></path>
  </symbol>
  <symbol viewBox="0 0 24 24" id="ui-icon-block">
    <path d="M12 2a10 10 0 1 0 0 20.001A10 10 0 0 0 12 2zm5 11H7v-2h10v2z"></path>
  </symbol>
  <symbol viewBox="0 0 24 24" id="ui-icon-bottom">
    <path d="M18 9.705l-1.41-1.41-4.59 4.58-4.59-4.58L6 9.705l6 6 6-6z"></path>
  </symbol>
  <symbol viewBox="0 0 24 24" id="ui-icon-calendar">
    <path fill-rule="evenodd" clip-rule="evenodd" d="M4 5a1 1 0 0 0-1 1v1a1 1 0 0 0 1 1h1a1 1 0 0 0 1-1V6a1 1 0 0 0-1-1H4zm5 0a1 1 0 0 0-1 1v1a1 1 0 0 0 1 1h1a1 1 0 0 0 1-1V6a1 1 0 0 0-1-1H9zm4 1a1 1 0 0 1 1-1h1a1 1 0 0 1 1 1v1a1 1 0 0 1-1 1h-1a1 1 0 0 1-1-1V6zm-9 4a1 1 0 0 0-1 1v1a1 1 0 0 0 1 1h1a1 1 0 0 0 1-1v-1a1 1 0 0 0-1-1H4zm4 1a1 1 0 0 1 1-1h1a1 1 0 0 1 1 1v1a1 1 0 0 1-1 1H9a1 1 0 0 1-1-1v-1zm6-1a1 1 0 0 0-1 1v1a1 1 0 0 0 1 1h1a1 1 0 0 0 1-1v-1a1 1 0 0 0-1-1h-1zm4 1a1 1 0 0 1 1-1h1a1 1 0 0 1 1 1v1a1 1 0 0 1-1 1h-1a1 1 0 0 1-1-1v-1zm-9 4a1 1 0 0 0-1 1v1a1 1 0 0 0 1 1h1a1 1 0 0 0 1-1v-1a1 1 0 0 0-1-1H9zm4 1a1 1 0 0 1 1-1h1a1 1 0 0 1 1 1v1a1 1 0 0 1-1 1h-1a1 1 0 0 1-1-1v-1zm6-1a1 1 0 0 0-1 1v1a1 1 0 0 0 1 1h1a1 1 0 0 0 1-1v-1a1 1 0 0 0-1-1h-1z"></path>
  </symbol>
  <symbol viewBox="0 0 24 24" id="ui-icon-cancel">
    <path d="M12 2C6.47 2 2 6.47 2 12s4.47 10 10 10 10-4.47 10-10S17.53 2 12 2zm5 13.59L15.59 17 12 13.41 8.41 17 7 15.59 10.59 12 7 8.41 8.41 7 12 10.59 15.59 7 17 8.41 13.41 12 17 15.59z"></path>
  </symbol>
  <symbol viewBox="0 0 24 24" id="ui-icon-change-password">
    <path fill-rule="evenodd" clip-rule="evenodd" d="M18 8h-1V6c0-2.76-2.24-5-5-5S7 3.24 7 6v2H6c-1.1 0-2 .9-2 2v10c0 1.1.9 2 2 2h12c1.1 0 2-.9 2-2V10c0-1.1-.9-2-2-2zM8.9 6c0-1.71 1.39-3.1 3.1-3.1 1.71 0 3.1 1.39 3.1 3.1v2H8.9V6zM13 16h3v-2h-3v-3h-2v3H8v2h3v3h2v-3z"></path>
  </symbol>
  <symbol viewBox="0 0 24 24" id="ui-icon-checked-m">
    <path fill-rule="evenodd" clip-rule="evenodd" d="M7.338 11.291a.866.866 0 0 0-1.225 1.225L9.695 16.1a1 1 0 0 0 1.411.004l6.835-6.766a.866.866 0 1 0-1.219-1.232L10.4 14.354 7.337 11.29z"></path>
  </symbol>
  <symbol viewBox="0 0 24 24" id="ui-icon-checked-s">
    <path fill-rule="evenodd" clip-rule="evenodd" d="M16.433 10.204l-5.645 5.645L7.47 12.53l1.06-1.06 2.258 2.258 4.584-4.584 1.06 1.06z"></path>
  </symbol>
  <symbol viewBox="0 0 24 24" id="ui-icon-clear">
    <path d="M19 6.41L17.59 5 12 10.59 6.41 5 5 6.41 10.59 12 5 17.59 6.41 19 12 13.41 17.59 19 19 17.59 13.41 12 19 6.41z"></path>
  </symbol>
  <symbol viewBox="0 0 24 24" id="ui-icon-close">
    <path d="M13.074 12.012L20 5.097a.75.75 0 0 0-1.061-1.06L12 10.964 5.09 4.037a.75.75 0 1 0-1.06 1.06l6.894 6.912-6.895 6.9a.75.75 0 0 0 1.06 1.06l6.908-6.912 6.942 6.913a.75.75 0 1 0 1.06-1.061l-6.925-6.897z"></path>
  </symbol>
  <symbol viewBox="0 0 24 24" id="ui-icon-delete">
    <path d="M19 4h-3.5l-1-1h-5l-1 1H5v2h14V4zM6 19a2 2 0 0 0 2 2h8a2 2 0 0 0 2-2V7H6v12z"></path>
  </symbol>
  <symbol viewBox="0 0 24 24" id="ui-icon-descending">
    <path d="M12.606 15.496c.128-.235.269-.44.424-.616a7.05 7.05 0 0 1 .568-.568l2.416-2.224.88.976-5.008 4.496-5.008-4.496.88-.976 2.416 2.224c.224.203.413.392.568.568.154.176.296.381.424.616V6.84h1.44v8.656z"></path>
  </symbol>
  <symbol viewBox="0 0 24 24" id="ui-icon-done">
    <path d="M5.197 12.713a.999.999 0 0 0-1.42-.005l.016-.016a1.002 1.002 0 0 0 .001 1.417l4.182 4.182c.391.392 1.03.388 1.415.003L19.979 7.706a.994.994 0 0 0-.002-1.414l.016.016a1.003 1.003 0 0 0-1.42.004L8.685 16.2l-3.488-3.487z"></path>
  </symbol>
  <symbol viewBox="0 0 24 24" id="ui-icon-edit-small">
    <path fill-rule="evenodd" clip-rule="evenodd" d="M18.775 7.045a.775.775 0 0 1 0 1.097l-1.423 1.423-2.917-2.917 1.423-1.423a.775.775 0 0 1 1.097 0l1.82 1.82zM5 19v-2.917l8.603-8.602 2.916 2.917L7.917 19H5z"></path>
  </symbol>
  <symbol viewBox="0 0 24 24" id="ui-icon-edit">
    <path d="M3 17.25V21h3.75L17.81 9.94l-3.75-3.75L3 17.25zM20.71 7.04a.996.996 0 0 0 0-1.41l-2.34-2.34a.996.996 0 0 0-1.41 0l-1.83 1.83 3.75 3.75 1.83-1.83z"></path>
  </symbol>
  <symbol viewBox="0 0 24 24" id="ui-icon-enter">
    <path d="M19 7v4H5.83l3.58-3.59L8 6l-6 6 6 6 1.41-1.41L5.83 13H21V7h-2z"></path>
  </symbol>
  <symbol viewBox="0 0 24 24" id="ui-icon-left">
    <path d="M14.222 18l1.41-1.41-4.58-4.59 4.58-4.59L14.222 6l-6 6 6 6z"></path>
  </symbol>
  <symbol viewBox="0 0 24 24" id="ui-icon-list">
    <path d="M18 15v2H6v-2h12zm0-4v2H6v-2h12zm0-4v2H6V7h12z"></path>
  </symbol>
  <symbol viewBox="0 0 24 24" id="ui-icon-lock">
    <path d="M12 2C6.48 2 2 6.48 2 12s4.48 10 10 10 10-4.48 10-10S17.52 2 12 2zm0 18c-4.42 0-8-3.58-8-8 0-1.85.63-3.55 1.69-4.9L16.9 18.31A7.902 7.902 0 0 1 12 20zm6.31-3.1L7.1 5.69A7.902 7.902 0 0 1 12 4c4.42 0 8 3.58 8 8 0 1.85-.63 3.55-1.69 4.9z"></path>
  </symbol>
  <symbol viewBox="0 0 24 24" id="ui-icon-locked-small">
    <path fill-rule="evenodd" clip-rule="evenodd" d="M16.5 9h-.75V7.571C15.75 5.6 14.07 4 12 4 9.93 4 8.25 5.6 8.25 7.571V9H7.5C6.675 9 6 9.643 6 10.429v7.142C6 18.357 6.675 19 7.5 19h9c.825 0 1.5-.643 1.5-1.429V10.43C18 9.643 17.325 9 16.5 9zM12 15c-.55 0-1-.45-1-1s.45-1 1-1 1 .45 1 1-.45 1-1 1zM9.75 7.571V9h4.5V7.571c0-1.185-1.005-2.142-2.25-2.142s-2.25.957-2.25 2.142z"></path>
  </symbol>
  <symbol viewBox="0 0 24 24" id="ui-icon-locked">
    <path fill-rule="evenodd" clip-rule="evenodd" d="M18 8h-1V6c0-2.76-2.24-5-5-5S7 3.24 7 6v2H6c-1.1 0-2 .9-2 2v10c0 1.1.9 2 2 2h12c1.1 0 2-.9 2-2V10c0-1.1-.9-2-2-2zm-6 9c-1.1 0-2-.9-2-2s.9-2 2-2 2 .9 2 2-.9 2-2 2zM9 6v2h6V6c0-1.66-1.34-3-3-3S9 4.34 9 6z"></path>
  </symbol>
  <symbol viewBox="0 0 24 24" id="ui-icon-logout">
    <path d="M18.5 17l5-5-5-5-1.41 1.41L19.67 11H8v2h11.67l-2.58 2.59L18.5 17zM13 3a2 2 0 0 1 2 2v4h-2V5H5v14h8v-4h2v4a2 2 0 0 1-2 2H5c-1.1 0-2-.9-2-2V5c0-1.1.9-2 2-2h8z"></path>
  </symbol>
  <symbol viewBox="0 0 24 24" id="ui-icon-minus">
    <path d="M19 13H5v-2h14v2z"></path>
  </symbol>
  <symbol viewBox="0 0 24 24" id="ui-icon-more-horizontal">
    <path d="M8 12c0-1.1-.9-2-2-2s-2 .9-2 2 .9 2 2 2 2-.9 2-2zm2 0c0 1.1.9 2 2 2s2-.9 2-2-.9-2-2-2-2 .9-2 2zm6 0c0 1.1.9 2 2 2s2-.9 2-2-.9-2-2-2-2 .9-2 2z"></path>
  </symbol>
  <symbol viewBox="0 0 24 24" id="ui-icon-more">
    <path d="M12 8c1.1 0 2-.9 2-2s-.9-2-2-2-2 .9-2 2 .9 2 2 2zm0 2c-1.1 0-2 .9-2 2s.9 2 2 2 2-.9 2-2-.9-2-2-2zm0 6c-1.1 0-2 .9-2 2s.9 2 2 2 2-.9 2-2-.9-2-2-2z"></path>
  </symbol>
  <symbol viewBox="0 0 24 24" id="ui-icon-new-user">
    <path d="M15 12c2.21 0 4-1.79 4-4s-1.79-4-4-4-4 1.79-4 4 1.79 4 4 4zm-9-2V7H4v3H1v2h3v3h2v-3h3v-2H6zm9 4c-2.67 0-8 1.34-8 4v2h16v-2c0-2.66-5.33-4-8-4z"></path>
  </symbol>
  <symbol viewBox="0 0 24 24" id="ui-icon-personal-data">
    <path d="M2 3h20c1.05 0 2 .95 2 2v14c0 1.05-.95 2-2 2H2c-1.05 0-2-.95-2-2V5c0-1.05.95-2 2-2zm12 3v1h8V6h-8zm0 2v1h8V8h-8zm0 2v1h7v-1h-7zm-6 3.91C6 13.91 2 15 2 17v1h12v-1c0-2-4-3.09-6-3.09zM8 6a3 3 0 1 0 0 6 3 3 0 0 0 0-6z"></path>
  </symbol>
  <symbol viewBox="0 0 24 24" id="ui-icon-plus-small">
    <path d="M17 13h-4v4h-2v-4H7v-2h4V7h2v4h4v2z"></path>
  </symbol>
  <symbol viewBox="0 0 24 24" id="ui-icon-plus">
    <path d="M19 13h-6v6h-2v-6H5v-2h6V5h2v6h6v2z"></path>
  </symbol>
  <symbol viewBox="0 0 24 24" id="ui-icon-pointer-down">
    <path d="M7 10l5 5 5-5H7z"></path>
  </symbol>
  <symbol viewBox="0 0 24 24" id="ui-icon-pointer-left">
    <path d="M14 7l-5 5 5 5V7z"></path>
  </symbol>
  <symbol viewBox="0 0 24 24" id="ui-icon-pointer-right">
    <path d="M10 17l5-5-5-5v10z"></path>
  </symbol>
  <symbol viewBox="0 0 24 24" id="ui-icon-pointer-up">
    <path d="M17 14l-5-5-5 5h10z"></path>
  </symbol>
  <symbol viewBox="0 0 24 24" id="ui-icon-refresh">
    <path d="M17.65 6.35A7.958 7.958 0 0 0 12 4c-4.42 0-7.99 3.58-7.99 8s3.57 8 7.99 8c3.73 0 6.84-2.55 7.73-6h-2.08A5.99 5.99 0 0 1 12 18c-3.31 0-6-2.69-6-6s2.69-6 6-6c1.66 0 3.14.69 4.22 1.78L13 11h7V4l-2.35 2.35z"></path>
  </symbol>
  <symbol viewBox="0 0 24 24" id="ui-icon-remove">
    <path d="M7 11v2h10v-2H7zm5-9C6.48 2 2 6.48 2 12s4.48 10 10 10 10-4.48 10-10S17.52 2 12 2zm0 18c-4.41 0-8-3.59-8-8s3.59-8 8-8 8 3.59 8 8-3.59 8-8 8z"></path>
  </symbol>
  <symbol viewBox="0 0 24 24" id="ui-icon-reset-password">
    <path d="M18 8h-1V6c0-2.76-2.24-5-5-5S7 3.24 7 6h2c0-1.66 1.34-3 3-3s3 1.34 3 3v2H6c-1.1 0-2 .9-2 2v10c0 1.1.9 2 2 2h12c1.1 0 2-.9 2-2V10c0-1.1-.9-2-2-2zm0 12H6V10h12v10zm-6-3c1.1 0 2-.9 2-2s-.9-2-2-2-2 .9-2 2 .9 2 2 2z"></path>
  </symbol>
  <symbol viewBox="0 0 24 24" id="ui-icon-right">
    <path d="M9.632 6l-1.41 1.41 4.58 4.59-4.58 4.59L9.632 18l6-6-6-6z"></path>
  </symbol>
  <symbol viewBox="0 0 24 24" id="ui-icon-search">
    <path d="M16.5 15h-.79l-.28-.27A6.471 6.471 0 0 0 17 10.5a6.5 6.5 0 1 0-6.5 6.5c1.61 0 3.09-.59 4.23-1.57l.27.28v.79l5 4.99L21.49 20l-4.99-5zm-6 0C8.01 15 6 12.99 6 10.5S8.01 6 10.5 6 15 8.01 15 10.5 12.99 15 10.5 15z"></path>
  </symbol>
  <symbol viewBox="0 0 24 24" id="ui-icon-settings">
    <path d="M14.667 12A2.672 2.672 0 0 1 12 14.667 2.672 2.672 0 0 1 9.333 12 2.672 2.672 0 0 1 12 9.333 2.672 2.672 0 0 1 14.667 12zM20 10.865a.38.38 0 0 0-.302-.375l-1.906-.292a5.74 5.74 0 0 0-.427-1.02c.354-.49.74-.949 1.093-1.428a.393.393 0 0 0 .01-.469c-.437-.614-1.166-1.26-1.718-1.77a.411.411 0 0 0-.26-.105.355.355 0 0 0-.25.094l-1.48 1.115a6.117 6.117 0 0 0-.937-.386l-.292-1.917c-.02-.177-.187-.312-.375-.312h-2.312a.381.381 0 0 0-.375.292c-.167.625-.23 1.302-.302 1.937a6.28 6.28 0 0 0-.948.396L7.78 5.51a.463.463 0 0 0-.27-.104c-.355 0-1.761 1.521-2.011 1.865a.404.404 0 0 0-.094.24.39.39 0 0 0 .104.25c.386.468.76.937 1.115 1.437a5.513 5.513 0 0 0-.406.958l-1.938.292c-.156.031-.281.219-.281.375v2.312a.38.38 0 0 0 .302.375l1.906.282c.104.354.25.698.427 1.03-.354.49-.74.949-1.093 1.428a.406.406 0 0 0-.01.48c.437.603 1.166 1.25 1.718 1.75a.373.373 0 0 0 .26.114.4.4 0 0 0 .26-.094l1.47-1.115c.302.157.614.282.937.386l.292 1.916c.02.178.187.313.375.313h2.312a.381.381 0 0 0 .375-.292c.167-.625.23-1.302.302-1.937.323-.104.646-.24.948-.396l1.44 1.125a.53.53 0 0 0 .27.094c.355 0 1.761-1.532 2.011-1.865a.348.348 0 0 0 .094-.24.41.41 0 0 0-.104-.26 22.23 22.23 0 0 1-1.115-1.437 5.83 5.83 0 0 0 .406-.948l1.927-.292c.167-.031.292-.219.292-.375v-2.312z"></path>
  </symbol>
  <symbol viewBox="0 0 24 24" id="ui-icon-share">
    <path d="M18 16.08c-.76 0-1.44.3-1.96.77L8.91 12.7c.05-.23.09-.46.09-.7 0-.24-.04-.47-.09-.7l7.05-4.11c.54.5 1.25.81 2.04.81 1.66 0 3-1.34 3-3s-1.34-3-3-3-3 1.34-3 3c0 .24.04.47.09.7L8.04 9.81C7.5 9.31 6.79 9 6 9c-1.66 0-3 1.34-3 3s1.34 3 3 3c.79 0 1.5-.31 2.04-.81l7.12 4.16c-.05.21-.08.43-.08.65 0 1.61 1.31 2.92 2.92 2.92 1.61 0 2.92-1.31 2.92-2.92 0-1.61-1.31-2.92-2.92-2.92z"></path>
  </symbol>
  <symbol viewBox="0 0 24 24" id="ui-icon-text">
    <path fill-rule="evenodd" clip-rule="evenodd" d="M4 2h11.993L20 6.03V21H4V2zm1.5 1.5H15V7h3.5v12.5h-13v-16zM8 11V9h8v2H8zm0 1v2h8v-2H8zm8 3v2H8v-2h8zM8 8h4V6H8v2z"></path>
  </symbol>
  <symbol viewBox="0 0 24 24" id="ui-icon-top">
    <path d="M6 14.295l1.41 1.41 4.59-4.58 4.59 4.58 1.41-1.41-6-6-6 6z"></path>
  </symbol>
  <symbol viewBox="0 0 24 24" id="ui-icon-unblock">
    <path d="M17 11v2h-1.46l4.68 4.68A9.92 9.92 0 0 0 22 12 10 10 0 0 0 12 2c-2.11 0-4.07.66-5.68 1.78L13.54 11H17zM2.27 2.27L1 3.54l2.78 2.78A9.92 9.92 0 0 0 2 12a10 10 0 0 0 10 10c2.11 0 4.07-.66 5.68-1.78L20.46 23l1.27-1.27L2.27 2.27zM7 13v-2h1.46l2 2H7z"></path>
  </symbol>
  <symbol viewBox="0 0 24 24" id="ui-icon-user-settings">
    <path fill-rule="evenodd" clip-rule="evenodd" d="M9 4a4 4 0 1 0 0 8 4 4 0 0 0 0-8zm0 10c-2.67 0-8 1.33-8 4v2h11.08c-.05-.33-.08-.66-.08-1 0-1.5.5-3 1.41-4.2-1.53-.52-3.23-.8-4.41-.8zm9 0a.26.26 0 0 0-.26.21l-.19 1.32c-.3.13-.59.29-.85.47l-1.24-.5c-.11 0-.24 0-.31.13l-1 1.73c-.06.11-.04.24.06.32l1.06.82a4.193 4.193 0 0 0 0 1l-1.06.82a.26.26 0 0 0-.06.32l1 1.73c.06.13.19.13.31.13l1.24-.5c.26.18.54.35.85.47l.19 1.32c.02.12.12.21.26.21h2c.11 0 .22-.09.24-.21l.19-1.32c.3-.13.57-.29.84-.47l1.23.5c.13 0 .26 0 .33-.13l1-1.73a.26.26 0 0 0-.06-.32l-1.07-.82c.02-.17.04-.33.04-.5 0-.17-.01-.33-.04-.5l1.06-.82a.26.26 0 0 0 .06-.32l-1-1.73c-.06-.13-.19-.13-.32-.13l-1.23.5c-.27-.18-.54-.35-.85-.47l-.19-1.32A.236.236 0 0 0 20 14h-2zm1 3.5a1.5 1.5 0 1 1 0 3c-.84 0-1.5-.67-1.5-1.5a1.5 1.5 0 0 1 1.5-1.5z"></path>
  </symbol>
  <symbol viewBox="0 0 24 24" id="ui-icon-user">
    <path d="M12 12c2.21 0 4-1.79 4-4s-1.79-4-4-4-4 1.79-4 4 1.79 4 4 4zm0 2c-2.67 0-8 1.34-8 4v2h16v-2c0-2.66-5.33-4-8-4z"></path>
  </symbol>
  <symbol viewBox="0 0 24 24" id="ui-icon-visibility-off">
    <path d="M22.078 11.4a.987.987 0 0 1 1.372-.29c.459.302.588.921.289 1.384a14.23 14.23 0 0 1-1.686 2.128l1.32 1.702c.336.436.26 1.064-.172 1.404a.986.986 0 0 1-1.392-.172l-1.236-1.598a14.018 14.018 0 0 1-2.357 1.491l.928 2.1a1.003 1.003 0 0 1-.503 1.32.988.988 0 0 1-1.309-.507l-.95-2.152a13.919 13.919 0 0 1-3.39.677v2.136c0 .552-.444 1-.992 1a.995.995 0 0 1-.985-.884l-.007-.116V18.89a13.918 13.918 0 0 1-3.394-.663l-.942 2.134a.988.988 0 0 1-1.309.507 1.003 1.003 0 0 1-.544-1.211l.041-.11.915-2.073a14.004 14.004 0 0 1-2.368-1.485l-1.212 1.566a.986.986 0 0 1-1.392.172 1.006 1.006 0 0 1-.242-1.3l.071-.104 1.29-1.665a14.23 14.23 0 0 1-1.656-2.066c-.303-.46-.18-1.08.277-1.386a.987.987 0 0 1 1.375.279c2.222 3.37 5.962 5.438 10.052 5.438 4.125 0 7.894-2.104 10.108-5.524z"></path>
  </symbol>
  <symbol viewBox="0 0 24 24" id="ui-icon-visibility-on">
    <path d="M12 8.5a4 4 0 1 1 0 8 4 4 0 0 1 0-8zM12 5c5.454 0 10.113 3.11 12 7.5-1.887 4.39-6.546 7.5-12 7.5-5.455 0-10.113-3.11-12-7.5C1.887 8.11 6.545 5 12 5zm-9.82 7.5C4.017 15.86 7.814 18 12 18s7.983-2.14 9.82-5.5C19.983 9.14 16.186 7 12 7s-7.983 2.14-9.82 5.5z"></path>
  </symbol>
  <symbol viewBox="0 0 24 24" id="ui-icon-volume-1">
    <path d="M3 9v6h4l5 5V4L7 9H3z"></path>
  </symbol>
  <symbol viewBox="0 0 24 24" id="ui-icon-volume-2">
    <path fill-rule="evenodd" clip-rule="evenodd" d="M3 15V9h4l5-5v16l-5-5H3zm11-7.03A4.5 4.5 0 0 1 16.5 12c0 1.77-1.02 3.29-2.5 4.02V7.97z"></path>
  </symbol>
  <symbol viewBox="0 0 24 24" id="ui-icon-volume-3">
    <path d="M3 9v6h4l5 5V4L7 9H3zm13.5 3A4.5 4.5 0 0 0 14 7.97v8.05c1.48-.73 2.5-2.25 2.5-4.02zM14 3.23v2.06c2.89.86 5 3.54 5 6.71s-2.11 5.85-5 6.71v2.06c4.01-.91 7-4.49 7-8.77 0-4.28-2.99-7.86-7-8.77z"></path>
  </symbol>
  <symbol viewBox="0 0 24 24" id="ui-icon-volume-off">
    <path fill-rule="evenodd" clip-rule="evenodd" d="M16.5 12A4.5 4.5 0 0 0 14 7.97v2.21l2.45 2.45c.03-.2.05-.41.05-.63zm2.5 0c0 .94-.2 1.82-.54 2.64l1.51 1.51A8.796 8.796 0 0 0 21 12c0-4.28-2.99-7.86-7-8.77v2.06c2.89.86 5 3.54 5 6.71zM4.27 3L3 4.27 7.73 9H3v6h4l5 5v-6.73l4.25 4.25c-.67.52-1.42.93-2.25 1.18v2.06a8.99 8.99 0 0 0 3.69-1.81L19.73 21 21 19.73l-9-9L4.27 3zM12 4L9.91 6.09 12 8.18V4z"></path>
  </symbol>
</svg>